<svg xmlns="http://www.w3.org/2000/svg" viewBox="0 0 612 792"><path d="M575.4 215.5c-1.2 6-5 9.8-10.7 11.4-3.2.9-4.8 2.2-6.1 5.6-1.9 5.2-5 10.1-7.9 15-1 1.7-2.8 3.1-4.4 4.4-4.1 3.1-8.8 2-11.4-2.4-.3-.6-.7-1.1-1-1.7-4.7 5.9-6.5 6.4-12.1 3.5-1.8 2.5-3.5 5.1-5.4 7.6-4.7 6.2-12.7 3.6-15-1.8-.4-.9-.9-1.7-1.6-3-2.1 4.3-4.5 7.8-9.7 6.1-1.1 2-2 3.8-3 5.5-3 5.2-8.6 7.8-13.7 6.2-1.4-.4-2.6-1.8-3.8-2.9-.7-.7-1.2-1.7-1.9-2.8-1.8 2.9-4.4 3.3-7.3 2.4-.9 2.3-1.6 4.5-2.6 6.5-4.2 7.7-10.6 8.9-17.4 3.5-1.8 1.9-3.3 4.7-5.4 5.5-2.1.8-5-.4-7.8-.8-.5 1-1.1 2.6-1.9 4.1-2.2 3.9-5.1 7.2-10.2 6.6-1.4-.1-3.1-.8-4-1.9-2.8-3.3-5.2-6.9-7.8-10.4-.7-1-1.3-2-2.3-3.5-4.5 8.4-4.9 16.9-4.1 25.8 2.3.6 4.4 1.3 6.6 1.8.5.1 1.3-.2 1.7-.6.8-.7 1.4-1.5 2.1-2.3 3.4-3.6 6.4-3.8 11-1.1.4.3.9.6 1.2.8 2.1-2 4.1-4 6.2-5.8 4.3-3.6 8.7-2.6 11.1 2.4 1.4 2.9 2.7 5.8 4 8.7 6.3-3.5 8.6-3.5 13.2.2 1.9-1.7 3.8-3.6 5.8-5.2 4.4-3.4 9-2.6 12 2.1 1.4 2.2 2.7 4.5 3.7 6.3 2.8-1.3 5.4-2.7 8.3-3.7 1-.3 2.8.2 3.5 1 1.4 1.4 2.4 3.2 3.3 5 .7 1.4 1.4 3.1 1.3 4.7-.1 4.6 2.8 5.9 6.5 6.4 4.5.7 6.7 3.6 7.5 7.8 1.2 5.6.3 11.1-1.1 16.6-.4 1.4-.9 2.8-1.3 4.3-1.3 5.3-4.8 8.5-9.4 11.3-10.7 6.5-22.6 8.6-34.7 10.2-20.1 2.7-40.3 2.8-60.6 1-3.6-.3-7.1-.7-11-1.2 1.7 12.7 4.4 25 8 37.3 4.1-.9 8.1-1.9 12.2-2.8 8-1.7 15.1.6 21.2 5.8 4.4 3.7 7.4 8.5 10.2 13.5 1 1.7.7 3.5-.8 4.9-2.4 2.3-2.8 2.3-5.3.9-1.7-.9-3.4-1.7-5.3-2.7-.2 2.2 0 4.1-.5 5.8-.6 2.2-1.5 4.4-2.8 6.2-1.7 2.3-3.6 2-5.7 0-3.3-3.1-6.5-6.5-10.2-9-1.8-1.3-4.7-1.1-7.6-1.7.4 2 .6 3.2.9 4.4 3 12 6.4 23.9 8.8 36.1 3.5 17 3.5 34.1-.4 51.1-2.6 11.1-6.9 21.4-14.4 30.2-.5.6-.7 1.8-.6 2.6 1.6 13.2 6.4 25.2 12.5 36.9 5.3 10.2 10.9 20.1 19 28.4.9 1 1.8 2 2.9 2.8 1.5 1.2 1.9 2.6 1.3 4.3-.6 1.8-1.8 2.7-3.6 2.9-3.3.3-6.5.8-9.8.8-6 .1-12.1 0-18.7 0 2.1 3.9 4.3 7.7 6.4 11.6.4.6.9 1.2 1.3 1.8 1.8 2.8.9 5.5-2.3 6.2-6.6 1.3-13.2 2.7-19.8 3.4-15.8 1.7-31.5 1-46.8-3.7-5.3-1.6-10.4-3.7-16-5.8.9 3 1.7 5.8 2.7 8.5 1 2.8 2.3 5.5 3.4 8.3 1.4 3.5-1.1 7.3-4.9 7.4-14.4.2-28.4-1.7-42.3-7.2-.6 4.4-1 8.7-1.7 12.9-.3 2 .2 4.2-1.8 5.8-1.2.9-2.2 1.2-3.7.7-10.4-3.9-20.8-7.9-29.6-14.9-.1-.1-.3-.1-.6-.1-.6 3-1.1 6-1.8 8.9-.6 2.4-1.2 4.8-2.1 7.1-.4 1-.5 2.6-3.3 2.6-2.2-.6-5.1-2-7.7-3.9-6.8-4.5-12.7-9.9-17.8-16.2-7.2-9.2-13.1-19.1-15.2-30.8-1.6-8.9-2-17.8-1.4-26.8.4-6.7 1.3-13.5 2-20.3-.9-.1-2-.2-3.1-.4-11.2-1.7-21.1-6.9-30.5-12.8-13.9-8.6-25.5-19.9-36.1-32.3-13.6-15.9-26.6-32.2-39.9-48.3-12.6-15.2-29.2-22.3-48.7-23.4-1.9-.1-3.3-.5-4.3-2.2v-2.7c1.3-2.2 3.4-2.9 5.8-3.4 8.5-1.8 17-4 25.6-5.6 9.6-1.8 19.2-1.5 28.9 0 17.8 1.9 31 7.5 45 15.4 5.4 3 10 7.5 15 11.3 7.7 6 15.8 10.7 24.9 14.6 7.2 3 14.4 3.2 22.1 1.4 4.8-1.1 8.5-1.8 12.1-5 .4-.4.7-1 .9-1.5 4.2-10.5 8.6-21 12.3-31.7 2.4-7 3.9-14.4 5.5-21.6 3.9-17.6 5.1-35.6 5.4-53.6.3-21-1.7-41.9-4.7-62.7-2.1-14.2-4.4-28.3-5.6-42.6-1.3-14.1-.4-28.2 1.3-42.2 1.5-12 3.8-23.9 7.3-35.5 2.9-9.5 7.2-18.4 12.5-26.9 9.8-15.7 24.1-25.7 40.5-33.3 14.3-6.6 29.4-10.2 45.1-11.4 4.1-.3 8.2.1 12.3.4 7.4.6 14.3-1.5 21.1-4.1 18.3-7 36.4-14.5 55.7-18.6 22.4-6.1 64.3-5.7 65.5-5.7 18.9 1.3 37.2 5.3 54.5 13.1 5.2 2.4 9.6 5.9 13 10.6 8.2 11.3 12.8 24.3 16.2 37.6 2.3 8.4 6.4 34.8 3.7 49.7zM236.5 671.8c.3-1.5.5-2.3.7-3 .8-3.1 1.6-6.2 2.6-9.2.5-1.7 2.1-2.1 3.3-.8 5.6 6.1 12.7 9.9 20 13.2 3.3 1.5 6.7 2.7 10 4 .9-5.7 1.8-11.1 2.8-16.4.8-4.4 1.1-4.5 5-2.6 1.3.6 2.7 1.2 4.1 1.7 9.1 3.3 18.5 4.6 28.1 5.3 2.7.2 5.4.3 8.5.4-.4-1-.5-1.5-.7-2.1-5.4-13.1-6.7-26.6-4.9-40.6 1.7-13.6 2.6-27.3 3.9-41 .1-.9.1-1.8.6-2.6.3-.6 1.2-1 1.8-1.5.4.6 1.1 1 1.3 1.7.3.9.4 2 .6 3.1 16.1-2.1 31.6-5.6 45.5-14.1 5.7-3.5 11.5-7 16.7-11.2 9.9-8 15.1-19.1 18.2-31.2 5.1-19.9 4.2-39.8-.6-59.6-3.7-15.2-7.9-30.3-11.7-45.5-2.5-9.9-4.7-19.9-7.1-29.8-.2-.8-2.4-5.1-9.4-5-5.1.1-19.9 10.7-27.8 8.7-8.6-2.7-17.3-5.3-25.9-7.9-7.2-2.2-13.5-5.8-19.4-10.4-9.8-7.8-21.1-19.2-26.8-26s-17.1-24.4-21.2-31.5c-.3-.5-.1-1.3-.2-1.9.2-.1.5-.1.7-.2 2.5 3.5 4.9 7.1 7.4 10.6 3.5 4.9 7.4 9.3 12.2 13 11.6 8.8 24.6 14.3 38.8 17.1 13.8 2.7 27.7 5.2 41.6 7.3 14.8 2.2 29.7 4.1 44.6 5.6 22.1 2.2 44.3 1.9 66.3-1.2 10-1.4 19.4-4.6 28.2-9.7.8-.5 1.7-1.1 2-1.9 1.6-4.4 3.4-8.8 4.3-13.4 1.9-9.8.1-12.6-8-14.5-.1 0-.3.1-.6.2.1 1.8.2 3.6.3 5.8 2-.2 3.8-.4 5.6-.5.6 0 1.2.1 1.8.2-.1.8.1 1.7-.3 2.2-1.3 2-3.5 2.2-5.6 2.1-6.3-.3-12.6-.4-18.9-.9-8-.6-15.9-1.5-23.8-2.4-28-3.3-55.5-9.4-82.8-16.4-5.5-1.4-10.8-3.2-16.2-5-9.2-3-17.8-7.2-25.6-13.1-6.6-5-13.4-9.7-21.4-12.5-.7-.2-1.3-.9-1.9-1.3-5.7 2.7-11.4 5.2-17.7 5.8-.7.1-1.6-.6-2.3-.9.6-.5 1.1-1.3 1.8-1.5 3-1 6-1.7 8.9-2.9 9.1-3.6 17.9-7.9 24-16.1.4-.6 1.7-.6 2.6-.8.1 1 .3 2 .2 2.9-.1.5-.7 1-1.1 1.4-3.8 3.4-7.7 6.8-11.9 10.4 5.7 1.9 11.4 4.6 17.4 5.7 8.4 1.5 17 .9 25.4-.6 12.4-2.2 23.8-7.1 35.1-12.4 15.7-7.4 31.2-15.1 47-22.1 26.6-11.8 54.1-21 82.6-26.8 10.3-2.1 20.7-3.5 31.1-5.4 6.1-1.1 12.1-2.5 18.1-3.9 3.2-.7 4.6-3.2 5-6.2 1.4-10.3 1.4-20.7 0-31-2-15.4-6.8-29.9-13.8-43.7-3.3-6.5-7.9-11.7-14.8-14.6-9.5-4-18.9-8.2-29.1-10-8.3-1.5-16.6-2.9-25-3.4-24.6-1.5-49 .9-72.7 7.8-15.7 4.6-31 10.3-46.4 15.5-2.6.9-5 2.8-7.6 3.2-4.5.8-9.2.9-13.8 1.1-3.6.1-7.2-.5-10.7-.3-17.9 1.3-34.7 6.1-50.6 14.5-7.6 4-14.6 8.8-20.7 14.7-1 1-21.5 23.2-28 61-.6 1-3.1 20.2-3.6 36.6.5 29.1 4.1 46.1 4.4 47.8 3.6 17.4 6.6 65 6.4 72.7C244.8 447.4 221 494 220 496.9c-.5 1.5-1.1 3.1-1.3 4.7-.6 6.6-7.2 110.8-7.1 112.3.1 9.3 1.1 18.5 4 27.3 2.3 6.9 17 26.5 20.9 30.6zM47.3 467.1c.9.2 1.7.4 2.5.5 14.8 2.7 27.7 9.1 37.8 20.3 8.9 9.9 17.2 20.4 25.7 30.7 11.3 13.6 22.4 27.4 35.7 39.2 9.9 8.8 20.8 16 33.1 21.1 5.6 2.3 11.3 4.3 17.7 3.6.8-6.6 1.6-13.1 2.4-19.6.2-1.8-.7-2.5-2.3-2.6-1.7 0-9.2 1.6-12.3.3 4.7-8.5 9.6-16.9 12.1-26.3 2.5-9.2 4.5-18.6 6.7-28-.2.1.9 1.1-7.4 2.1-24.1 3-52-26.2-63.1-32.2-24.4-13.2-45.6-16-54.2-16.2-13.7 0-21.2 3.4-34.4 7.1zM351 633.3c.4 9.5.5 9.5.4 14.3 0 1.7.5 2.2 2 2.4 11.8 1.5 23.7 1.8 35.5.3 3.7-.5 7.4-1.3 11.4-1.9-.9-1.8-1.8-3.1-2.4-4.6-2.1-5-4.2-10-6.1-15.1-.7-2 .9-3.4 3-3 1.3.3 2.6.8 3.9.9 5.6.4 11.3.8 17 1.1 2.3.1 4.5 0 7.5 0-8.3-9.4-14.5-19.4-20.2-29.7-5.6-10.3-9.7-21.3-12.2-32.8-2.3 3.6-28.3 28.4-35.9 48.2-1.9 5.3-4.3 10.5-3.9 19.9zM395.2 418c.6 2.6 1.1 5.4 1.8 8.1.4 1.7 1.2 2.9 3.4 2.5 1.8-.3 3.7-.2 5.6-.3 2.5-.1 4.8.4 6.8 2.2 3.1 2.9 6.3 5.7 9.5 8.6 2.7-6.1-1.1-11-3.2-16.3 1.2.5 14.6 8.2 17.5 8.6-5.2-16.4-22.5-21.4-29.6-16.8-4 1-7.8 2.2-11.8 3.4zm-31.4-126.9c-12.6 4.3-25.4 4.6-39 4.1 10.9 8.5 22.4 13.8 35.3 17-.2-7.5.2-14.5 3.7-21.1zm30.4-12.7c-1.1.4-1.7.5-2.3.8-7.9 3.4-15.7 6.8-23.6 10.3-.4.2-.9.6-1 1-.7 2-1.2 4.1-1.8 6.3.3.2.7.4 1.1.6 3.5 1.3 7.1 2.4 10.4 4 1.2.5 2 .7 3.2 0 4.2-2.3 6.9-1.4 9.4 2.6.4.6 1.2 1 1.7 1.4-1-9.4-.4-18 2.9-27zm69.4-30.9c3.3 5.9 6.4 11.5 9.6 17 1.5 2.5 3.2 2.9 5.7 1.4 1.1-.6 2.2-1.6 2.9-2.7 4.4-6.2 5.6-13.2 5.4-20.6-.1-2.5-.5-2.7-2.8-2l-13.8 4.5c-2.4.8-4.6 1.6-7 2.4zm33.8-10.4c2.6 5.3 4.9 10.1 7.3 14.9.6 1.2 1.5 2.4 2.4 3.5 1.7 1.9 3.1 2 4.6 0 2.2-2.8 4.3-5.8 5.8-8.9 2.2-4.5 2.8-9.3 2.3-14.6-7.5 1.7-14.8 3.4-22.4 5.1zm-43 13.8c-7.4 3.1-14.4 6.1-21.3 9 3.5 4.6 6.7 8.9 9.9 13.3 2.6 3.5 7.3 4.3 9.7-.4 3.7-6.8 2.6-14 1.7-21.9zm-50.9 22.8c3.3 4.6 6.4 8.8 9.4 13 2.3 3.2 4 2.8 6.2-.3 4.9-6.6 6.4-14.3 5.8-22.9-7.1 3.4-14 6.7-21.4 10.2zm20.6 53.7c-.2-1-.2-1.8-.4-2.4-1.7-4.9-3.3-9.9-5.3-14.7-.6-1.5-2.1-2.7-3.4-3.8-1.4-1.2-2.9-1.1-4.2.5-2.4 3-5 5.9-7.3 9.1-1.4 1.9-2.4 4.2-3.7 6.5 8.3 1.5 16.1 3.1 24.3 4.8zm130.5-100.5c-8 .9-15.4 1.8-23 2.7 2.6 5.8 5.1 11.1 7.6 16.6.8 1.8 2.1 2 3.6 1.2.7-.4 1.4-.9 1.9-1.5 5.2-5.1 7.5-11.7 9.9-19zM434.4 329.1c7.3.9 14.1 1.7 21.8 2.6-2.1-6.7-3.7-12.7-5.8-18.5-1-2.9-2.8-3-5.5-1.2-6 4.1-7.7 10.6-10.5 17.1zm53.8 5.4c.3-.6.4-.7.4-.9.3-6.7-1.3-13-3.3-19.3-.4-1.1-1.2-1.5-2.3-.8-.8.4-1.6.9-2.2 1.5-5.2 5-9 11.1-12.3 18 6.7.6 13.2 1.1 19.7 1.5zm-97-13.9c-1.4-5.3-2.8-10.1-4.1-14.9-.7-2.7-2.1-3.5-4.7-2.3-5.5 2.5-9.6 6.6-13.1 11.9 7.4 1.8 14.6 3.6 21.9 5.3zm82-2.3c-1-1.7-1.8-3.2-2.7-4.7-1.5-2.3-2.9-4.6-4.6-6.8-.4-.5-2-.7-2.4-.4-2.9 2.8-5.7 5.6-8.5 8.6-1 1.1.3 4.5 1.7 4.7 4.5.9 9 1.8 13.7 2.7.9-1.2 2-2.8 2.8-4.1zm-42.1-19l-.9.9c-.1 0-.3 0-.4.1-2.8 2.7-5.7 5.2-8.2 8-1 1.1 1.1 5 2.5 5.2 3.9.7 7.8 1.4 11.7 2 1.7.3 2.3-.4 1.7-1.9-1.7-4.1-3.5-8.1-5.3-12.1-.4-.7-.7-1.5-1.1-2.2zm92.7-67.8c-.6 4.3-1.2 8.2-1.8 12-.4 2.5 1.7 2.8 3.1 3.6 1.4.8 2.1.2 3-.9 4.5-6 4.7-8 1.1-14.1-.1-.2-.2-.5-.3-.6-.5-.3-1-.8-1.4-.7-1.4.2-2.7.6-3.7.7zm-96.2 44.4c-.2.1-.4.1-.6.2.4.5.7 1.1 1.1 1.4 1 .6 2.2.9 3.3 1.4 1.1.5 2.1.3 2.6-.8 1.1-2.1 2.2-4.2 3.1-6.4.2-.6.1-1.6-.3-2-2-2.5-4.1-4.9-6.3-7.2-1-1-2.2-.5-2.3.9-.3 4-.4 8.2-.6 12.5zm-63.5 23.9c-.3.9-.7 1.7-.7 2.5-.1 3.3-.1 6.7 0 10 0 .5.8 1.4 1.2 1.5.9.1 2.3.1 2.8-.5 2.8-3.1 5.4-6.4 8.1-9.6-2.6-1-5.4-2.1-8.3-3.1-.9-.3-1.9-.5-3.1-.8zm128.4-44.3c4.9-7.2 7.2-11.1 1.8-17.2-1.4.3-2.7.7-3.5.9-.3 4.2-.4 8-.9 11.7-.4 2.9-.3 3.4 2.6 4.6zm-90 55.6c-3.9-1-7.8-2-12.3-3.1 1.5 4.2 2.9 7.7 4 11.4.5 1.7 1.3 2.2 2.6 2.1 1.9-3.5 3.8-6.8 5.7-10.4zm55.1-60.9c.3 3 .6 6 .8 9 .1 1.8 2.3 4.3 4.2 4.3.4 0 .8-.3 1.1-.5 2.1-2 2.5-5.4 1-7.8-.7-1.2-1.5-2.4-2.2-3.6-2-3.1-2-3.1-4.9-1.4zm-32.8 66c.9 3.5 1.4 6.5 2.4 9.5.4 1 1.7 2 2.7 2.4.4.2 1.7-1.1 2.1-2 1.2-2.3 2.1-4.7 3.2-7.3-3.6-.9-6.9-1.8-10.4-2.6zm32.4 6.1c.5 2.3.8 4 1.2 5.6.9 4.2 1.3 4.5 5.5 4.4.6 0 1.4-.5 1.7-1 1-1.8 1.8-3.7 2.9-5.9-3.8-1-7.3-2-11.3-3.1z"/><path d="M317.6 251.6l2.5-2.5c-14.5-4.3-23.8-14.3-29-28.2-6.7-18-5.5-35.9 2.6-53.3 1.5-3.3 3.7-6.3 5.9-9.2 1.9-2.6 4.6-4.3 7.7-5.1.2.2.3.4.5.6-.9.9-1.8 1.7-3 2.9.8-.3 1.3-.5 1.7-.7 14.1-6.1 27.2-.9 34.5 12.5 5 9.3 7 19.4 7.5 29.9.3 8-.2 15.8-3 23.3-3.6 9.8-9.2 18.3-17.2 24.9-2.6 2.2-5.9 3.5-8.8 5.2-.3.2-.8.1-1.2.2-.4-.2-.6-.4-.7-.5zm-14.2-15.4c-.4-1.4-.9-2.8-1.2-4.3-2.2-9.6-1-19.1 2.5-28.1 3.4-8.9 9.4-15.6 18.8-18.9 8.9-3.1 18.5.6 22.1 8.1.1.1.3.2.6.4-.5-3-.9-5.7-1.5-8.4-1.5-7.5-6.3-11.7-13.5-13.1-10.7-2.1-19.9 1-27.2 9.3-6.2 7.1-9 15.6-11 24.6-2.7 12.4 2.2 21.8 10.4 30.4zm38.3-61.4c-1.1-2.2-1.9-4.5-3.3-6.6-4.2-6.4-9.6-11.1-17.5-12.4-7.5-1.2-14 1.4-20.1 5.2-1 .6-1.9 1.5-2.5 2.5-9.2 14.6-10.9 30.6-8.1 47.3.7-2.8 1.1-5.7 1.6-8.5 1.8-9.7 6.2-18.1 13.3-24.9 8.6-8 24.8-11.7 36.6-2.6zm-4 44.9c.1 0 .2-.1.3-.1-.6-1.9-1-3.9-1.8-5.7-1.3-2.9-5-5-7.8-4.6-3.5.4-5.7 2.5-6.6 6.3-.9 3.8.3 7.1 2.7 9.9 2 2.3 4.6 3.7 7.8 2.6 3.1-1.1 4.7-3.5 5.3-6.7 0-.5 0-1.1.1-1.7zM266 476.7c-2-1.2-2.8-3.2-2.2-5.4.4-1.4.1-2.2-1-3.1-1.4-1.1-2-2.6-1.9-4.5.2-5.8 1.8-11.1 4.5-16.2 4.2-7.7 8.3-15.5 12.4-23.3.3-.7.6-1.4 1-2.3-4.5-1.5-6.9-4.9-8.8-8.9-.2-.4-.5-.8-.5-1.2 0-1.1.1-2.3.1-3.4.7.8 1.5 1.5 2 2.4 1.8 3.3 3.4 6.6 7.5 7.4.5.1.9.1 1.7-.4-.6-.5-1.1-1-1.7-1.4-3.9-2.7-6.9-6-7.2-11 0-.4-.2-1 0-1.3.3-.8.8-1.6 1.3-2.3.5.8 1.3 1.5 1.3 2.3.4 4.7 2.8 7.7 7.5 9.7.4-3.4.7-6.5 1.1-9.8 2 .4 2.1 1.7 2.2 2.9.4 5.4-.6 10.6-3 15.4-3.5 7-7.2 13.9-10.7 20.9-2.9 5.6-5.9 11.2-6.7 17.7-.5 4.4-.4 5.1 3.7 6.8 3.2 1.3 6.4 2.3 9.7 3.2 9.5 2.6 17.6 7.6 25.4 13.3 3.2 2.3 6.3 4.7 9.5 7.2.6-8.1-.9-15.4-7.4-20.7 1.2-2 2.2-1.9 3.4-.7.9.9 9.8 5.9 11 6.4 2.7 1.2 5.4 2.5 8.3 3.8-.4-3.3-1.8-6.2-3.7-9-6.1-8.7-14.7-12-25-12.4-7.3-.3-14.6-1.4-21-5.4-.7-.4-1.5-.8-2-1.4-.4-.5-.5-1.2-.8-1.8.7-.1 1.5-.3 2.2-.3.4 0 .8.4.7.3 3.3-5.8 6.6-11.4 9.9-17.1 2.8-5 5.8-9.9 8.2-15.1 1.2-2.8 1.2-6.1 1.8-9.2.2-.8.8-1.5 1.1-2.2.6.5 1.5 1 1.6 1.6.4 1.8.6 3.7.9 5.8 3.6-4.6 4-9.7 2.3-15.1 1.5-1.6 2.5-.7 3.2.8 2.3 5 3.6 10.1.6 15.2-3.5 6.1-7.2 12-10.7 18.1-2.6 4.6-5 9.4-7.5 14.2-.3.6-.4 1.3-.5 1.9-.7 4.3.1 5.4 4.4 5.8 3.6.3 7.1.9 10.7.8 11.1 0 25.3 9.9 27 24.9.1.9.3 1.9 0 2.7-.3.9-.9 1.7-1.6 2.2-.2.2-1.3-.6-1.8-1.1-3.7-3.3-7.8-5.7-12.5-6 .1 5.2.3 10.1.2 15.1 0 1.7.2 3.8-1.6 4.7-2.6-3-5.1-5.9-7.6-8.8l-.4.4c.4 3.3.8 6.5 1.3 10.2-4.7-3.8-8.9-7.2-13.1-10.6 1.4 5.1 1.8 10.1-.2 15.5-6-9.5-26.4-27-28.6-28.2zM468.4 139.1c3.7-.1 7.5.6 11 2.5 5.6 3 8.1 8.4 6.8 14.7-1.4 6.7-5.8 11.1-12.1 11.7-2.2.2-4.5.2-6.7 0-5.7-.5-9-4.4-11.7-8.8-.8-1.4-1.6-1.8-3-1.2-3.3 1.4-6.6 2.7-9.7 4.5-1.3.7-1.9 2.6-2.8 3.9-.5.7-.8 1.5-1.4 2-.4.3-1.4.5-1.8.3-.4-.3-.6-1.3-.4-1.8 3.7-9.4 8.3-18.2 17.3-23.9 4.4-2.8 9.2-4 14.5-3.9z"/><g><path d="M333.2 468.2L346 466l9.3 15.2 6.4-17.9 12.8-2.2 4.1 47-12.2 2.1-2-23.3-7 18.2h-.2l-9.9-15.3 2 23.3-12 2.1-4.1-47z"/></g><path d="M393.5 502.9l-14.6-14.5 7.1-1.2-1.8-20.7 12.1-2.1 1.8 20.7 7.1-1.2-11.7 19z"/></svg>