<svg xmlns="http://www.w3.org/2000/svg" viewBox="0 0 800 800">
    <path fill="#FFF" d="M400 792.3c-21.2 0-41.5-5-57.1-14l-242.5-140c-32-18.5-57.1-61.9-57.1-98.8V259.4c0-36.9 25.1-80.4 57.1-98.8l242.5-140c15.6-9 35.9-14 57.1-14 21.2 0 41.5 5 57.1 14l242.5 140c32 18.5 57.1 61.9 57.1 98.8v280.1c0 36.9-25.1 80.4-57.1 98.8l-242.5 140c-15.6 9-35.9 14-57.1 14zm0-734.7c-12.2 0-23.7 2.6-31.5 7.1L126 204.8c-16.5 9.5-31.5 35.5-31.5 54.6v280.1c0 19 15 45 31.5 54.6l242.5 140c7.8 4.5 19.3 7.1 31.5 7.1s23.7-2.6 31.5-7.1L674 594c16.5-9.5 31.5-35.5 31.5-54.6v-280c0-19-15-45-31.5-54.6l-242.5-140c-7.8-4.6-19.3-7.2-31.5-7.2z"/>
    <path fill="#FFF" d="M626.3 294.2l-161.4 291-68.4-126.8-68.8 126.8-161-291H264l62.8 113.9 69.6-128 69.2 128 63.2-113.9h97.5z"/>
</svg>
